<svg width="16" height="16" viewBox="0 0 16 16" fill="none" xmlns="http://www.w3.org/2000/svg">
<g clip-path="url(#clip0_750_368)">
<path d="M8.01096 0.0078125C3.59738 0.0078125 0.0203247 3.58487 0.0203247 7.99845C0.0203247 12.412 3.59738 15.9891 8.01096 15.9891C12.4245 15.9891 16.0016 12.412 16.0016 7.99845C16.0016 3.58487 12.4245 0.0078125 8.01096 0.0078125ZM8.01096 14.5C4.1561 14.5 1.5 11.8533 1.5 7.99845C1.5 4.14359 4.1561 1.5 8.01096 1.5C11.8658 1.5 14.5 4.14359 14.5 7.99845C14.5 11.8533 11.8658 14.5 8.01096 14.5Z" fill="white"/>
<path d="M7.49744 5.00192C7.49744 5.13437 7.55005 5.2614 7.64371 5.35506C7.73737 5.44872 7.8644 5.50133 7.99685 5.50133C8.1293 5.50133 8.25633 5.44872 8.34999 5.35506C8.44365 5.2614 8.49627 5.13437 8.49627 5.00192C8.49627 4.86946 8.44365 4.74244 8.34999 4.64878C8.25633 4.55512 8.1293 4.5025 7.99685 4.5025C7.8644 4.5025 7.73737 4.55512 7.64371 4.64878C7.55005 4.74244 7.49744 4.86946 7.49744 5.00192Z" fill="white"/>
<path d="M8.00308 6.55481C7.7284 6.55481 7.50366 6.77955 7.50366 7.05422V11.0495C7.50366 11.3242 7.7284 11.549 8.00308 11.549C8.27776 11.549 8.50249 11.3242 8.50249 11.0495V7.05422C8.50249 6.77955 8.27776 6.55481 8.00308 6.55481Z" fill="white"/>
</g>
<defs>
<clipPath id="clip0_750_368">
<rect width="16" height="16" fill="white"/>
</clipPath>
</defs>
</svg>
