<svg width="18" height="16" viewBox="0 0 18 16" fill="none" xmlns="http://www.w3.org/2000/svg">
<path d="M8.8451 4.55823C6.92587 4.55823 5.36444 6.10212 5.36444 7.99981C5.36444 9.89758 6.92587 11.4416 8.8451 11.4416C9.03186 11.4416 9.22932 11.4224 9.46775 11.3811C9.82407 11.3169 10.0609 10.9789 9.99574 10.6278C9.93847 10.3197 9.66886 10.0961 9.35448 10.0961C9.31392 10.0961 9.27302 10.0999 9.23457 10.1071C9.07913 10.1346 8.95585 10.1474 8.8467 10.1474C7.64907 10.1474 6.67477 9.18394 6.67477 7.99981C6.67477 6.81575 7.64759 5.85242 8.84342 5.85242C10.0402 5.85242 11.0137 6.81575 11.0137 7.99981C11.0137 8.11519 11.0009 8.23642 10.9728 8.38228C10.9077 8.73336 11.1446 9.07136 11.5007 9.13548C11.54 9.14254 11.58 9.14618 11.6196 9.14618C11.9369 9.14618 12.2075 8.92236 12.2625 8.61519C12.3044 8.39094 12.324 8.19545 12.324 7.99995C12.3248 7.08208 11.963 6.21818 11.3051 5.56742C10.6472 4.91663 9.77354 4.55823 8.8451 4.55823Z" fill="white"/>
<path d="M17.2281 6.41834C17.1853 6.19459 17.012 6.01691 16.7863 5.96559C15.9656 5.77939 15.2828 5.2816 14.8636 4.56449C14.4458 3.84856 14.3507 3.01556 14.5956 2.22034C14.6646 2.00252 14.5957 1.76535 14.4203 1.61642C13.6006 0.916925 12.667 0.383965 11.6456 0.0325321C11.5838 0.0112113 11.5195 0.000430687 11.4541 0.000430687C11.2925 0.000430687 11.1373 0.0676193 11.0287 0.184042C10.4562 0.791946 9.68069 1.12673 8.84513 1.12673C8.00949 1.12673 7.23342 0.791385 6.65962 0.182279C6.50537 0.0190864 6.25799 -0.0431526 6.04122 0.0309693C5.01349 0.38681 4.08044 0.920312 3.26761 1.61689C3.09498 1.76555 3.02631 2.0011 3.09265 2.21751C3.33913 3.01344 3.2446 3.84635 2.82638 4.56307C2.40917 5.2797 1.72686 5.77727 0.903943 5.96439C0.677951 6.01745 0.504539 6.19569 0.462178 6.41804C0.359802 6.95007 0.307922 7.48225 0.307922 7.99968C0.307922 8.51717 0.359802 9.04935 0.462098 9.58119C0.504679 9.80466 0.677951 9.9824 0.903723 10.0339C1.72447 10.2202 2.40734 10.7178 2.82652 11.435C3.24459 12.1516 3.33913 12.9845 3.09251 13.7808C3.02665 13.9956 3.0949 14.2315 3.26823 14.3831C4.08772 15.0823 5.02071 15.6152 6.04226 15.9674C6.26679 16.0434 6.50711 15.9781 6.6582 15.8169C7.23192 15.2081 8.0079 14.8728 8.84342 14.8728C9.67894 14.8728 10.4551 15.2081 11.028 15.8163C11.1368 15.9329 11.2923 16 11.4545 16C11.5187 16 11.5826 15.9898 11.647 15.9687C12.6678 15.6168 13.6008 15.0839 14.4209 14.3842C14.593 14.2359 14.6619 13.9999 14.596 13.7819C14.3493 12.9854 14.4443 12.1526 14.8637 11.4365C15.2813 10.7193 15.9641 10.2218 16.7865 10.0355C17.0095 9.98472 17.1827 9.80767 17.2281 9.58302C17.3304 9.0507 17.3822 8.51858 17.3822 8.00137C17.3822 7.48306 17.3304 6.95031 17.2281 6.41834ZM13.1178 13.4107C12.6082 13.8054 12.046 14.1265 11.4438 14.3666C10.7255 13.7372 9.80671 13.3918 8.84346 13.3918C7.88539 13.3918 6.96675 13.7372 6.24361 14.3668C5.64157 14.1267 5.07932 13.8056 4.56952 13.4109C4.76327 12.4819 4.60651 11.5222 4.12377 10.6963C3.64501 9.87453 2.88173 9.2602 1.9661 8.95666C1.91947 8.63662 1.8959 8.31519 1.8959 7.9997C1.8959 7.68554 1.91947 7.36425 1.9661 7.04309C2.87886 6.74174 3.64201 6.12746 4.12377 5.30322C4.60399 4.48031 4.76069 3.52061 4.56924 2.58877C5.07884 2.19419 5.64107 1.87318 6.24339 1.63286C6.96443 2.26342 7.88315 2.60924 8.84344 2.60924C9.80677 2.60924 10.7255 2.2639 11.4438 1.63446C12.046 1.87472 12.6081 2.19573 13.1177 2.59031C12.9256 3.52307 13.0817 4.48261 13.5615 5.30477C14.0402 6.12656 14.8034 6.74097 15.7191 7.04464C15.7658 7.36551 15.7893 7.68695 15.7893 8.00299C15.7921 8.30541 15.7691 8.62564 15.7208 8.95666C14.8051 9.26026 14.0419 9.87453 13.5631 10.6962C13.084 11.5173 12.9273 12.4768 13.1178 13.4107Z" fill="white"/>
</svg>
