<svg width="90" height="90" viewBox="0 0 90 90" fill="none" xmlns="http://www.w3.org/2000/svg">
<circle cx="45" cy="45" r="45" fill="#337DD4"/>
<path d="M45 28C34.436 28 26 36.436 26 47C26 57.564 34.436 66 45 66C55.564 66 64 57.564 64 47C64 45.936 63.297 45.233 62.233 45.233C61.169 45.233 60.466 45.936 60.466 47C60.466 55.436 53.436 62.485 44.981 62.485C36.545 62.485 29.496 55.455 29.496 47C29.496 38.564 36.526 31.515 44.981 31.515C47.793 31.515 50.966 32.218 53.075 33.985V34.346L51.308 36.455C50.605 37.158 51.308 38.564 52.372 38.564L60.466 38.925C61.169 38.925 61.872 37.861 61.872 37.158L59.402 29.425C59.041 28.361 57.635 28.019 56.932 29.064L55.526 31.173C52.391 29.064 48.876 28 45 28Z" fill="white"/>
</svg>
