<svg width="90" height="90" viewBox="0 0 90 90" fill="none" xmlns="http://www.w3.org/2000/svg">
<circle cx="45" cy="45" r="45" fill="#337DD4"/>
<path d="M41.6663 30.4166V59.5833C41.6657 60.1356 41.446 60.6651 41.0555 61.0557C40.6649 61.4463 40.1354 61.666 39.583 61.6666H35.4163C34.864 61.666 34.3345 61.4463 33.9439 61.0557C33.5533 60.6651 33.3336 60.1356 33.333 59.5833V30.4166C33.3336 29.8642 33.5533 29.3347 33.9439 28.9441C34.3345 28.5536 34.864 28.3339 35.4163 28.3333H39.583C40.1354 28.3339 40.6649 28.5536 41.0555 28.9441C41.446 29.3347 41.6657 29.8642 41.6663 30.4166ZM54.583 28.3333H50.4163C49.864 28.3339 49.3345 28.5536 48.9439 28.9441C48.5533 29.3347 48.3336 29.8642 48.333 30.4166V59.5833C48.3336 60.1356 48.5533 60.6651 48.9439 61.0557C49.3345 61.4463 49.864 61.666 50.4163 61.6666H54.583C55.1354 61.666 55.6649 61.4463 56.0555 61.0557C56.446 60.6651 56.6657 60.1356 56.6663 59.5833V30.4166C56.6657 29.8642 56.446 29.3347 56.0555 28.9441C55.6649 28.5536 55.1354 28.3339 54.583 28.3333Z" fill="white"/>
</svg>
