<svg width="54" height="54" viewBox="0 0 54 54" fill="none" xmlns="http://www.w3.org/2000/svg">
<path d="M54 27C54 41.85 41.85 54 27 54C12.15 54 0 41.85 0 27C0 12.15 12.15 0 27 0C41.85 0 54 12.15 54 27ZM38.475 32.94C37.665 32.265 36.72 31.725 35.91 31.05C34.155 29.835 32.535 29.7 31.185 31.725C30.51 32.805 29.43 32.94 28.35 32.4C25.38 31.05 23.085 29.025 21.735 25.92C21.195 24.57 21.195 23.355 22.545 22.41C23.22 21.87 24.03 21.33 24.03 20.25C23.895 18.765 20.52 14.04 19.17 13.635C18.63 13.365 18.09 13.5 17.415 13.635C14.175 14.715 12.825 17.28 14.175 20.385C17.955 29.7 24.705 36.045 33.885 40.095C34.425 40.365 34.965 40.365 35.235 40.5C37.395 40.5 39.825 38.475 40.5 36.585C41.04 34.56 39.555 33.885 38.475 32.94Z" fill="white"/>
</svg>
