<svg width="31" height="31" viewBox="0 0 31 31" fill="none" xmlns="http://www.w3.org/2000/svg">
<path fill-rule="evenodd" clip-rule="evenodd" d="M28.0607 6.93934C28.6464 7.52513 28.6464 8.47487 28.0607 9.06066L16 21.1213L8.93934 14.0607C8.35355 13.4749 8.35355 12.5251 8.93934 11.9393C9.52513 11.3536 10.4749 11.3536 11.0607 11.9393L16 16.8787L25.9393 6.93934C26.5251 6.35355 27.4749 6.35355 28.0607 6.93934Z" fill="#00E9E9"/>
<path d="M21.8242 2.93381C22.1798 2.2273 21.8972 1.35955 21.1609 1.07068C18.4692 0.0146706 15.5258 -0.27085 12.6645 0.26156C9.33227 0.881606 6.29511 2.57683 4.01819 5.08761C1.74126 7.59838 0.350103 10.7863 0.057761 14.1631C-0.234581 17.5399 0.588012 20.9195 2.39956 23.7842C4.21111 26.649 6.91174 28.8409 10.0879 30.0244C13.264 31.2079 16.7405 31.3177 19.9849 30.337C23.2294 29.3562 26.063 27.339 28.0516 24.5943C29.7593 22.2375 30.7631 19.4559 30.9629 16.5714C31.0176 15.7824 30.3548 15.155 29.5641 15.1734C28.7734 15.1917 28.1557 15.8495 28.0845 16.6372C27.8805 18.8942 27.0722 21.0644 25.7322 22.9138C24.111 25.1513 21.8011 26.7957 19.1562 27.5952C16.5112 28.3947 13.6772 28.3052 11.088 27.3404C8.49877 26.3757 6.29719 24.5887 4.82039 22.2534C3.3436 19.918 2.67302 17.163 2.91134 14.4102C3.14966 11.6573 4.28374 9.05853 6.13991 7.01171C7.99608 4.9649 10.472 3.58294 13.1885 3.07747C15.4337 2.6597 17.7409 2.85971 19.8674 3.64301C20.6096 3.91639 21.4687 3.64033 21.8242 2.93381Z" fill="#00E9E9"/>
</svg>
