<svg width="27" height="7" viewBox="0 0 27 7" fill="none" xmlns="http://www.w3.org/2000/svg">
<path d="M2.912 6.144C4.608 6.144 5.856 4.8 5.856 3.072C5.856 1.344 4.608 0 2.912 0C1.248 0 0 1.344 0 3.072C0 4.8 1.248 6.144 2.912 6.144Z" fill="white"/>
<path d="M13.3182 6.144C15.0142 6.144 16.2623 4.8 16.2623 3.072C16.2623 1.344 15.0142 0 13.3182 0C11.6542 0 10.4062 1.344 10.4062 3.072C10.4062 4.8 11.6542 6.144 13.3182 6.144Z" fill="white"/>
<path d="M23.7245 6.144C25.4205 6.144 26.6685 4.8 26.6685 3.072C26.6685 1.344 25.4205 0 23.7245 0C22.0605 0 20.8125 1.344 20.8125 3.072C20.8125 4.8 22.0605 6.144 23.7245 6.144Z" fill="white"/>
</svg>
