<svg width="48" height="48" viewBox="0 0 48 48" fill="none" xmlns="http://www.w3.org/2000/svg">
<circle cx="24.387" cy="24.387" r="21.2903" fill="white"/>
<path d="M24 48C10.746 48 0 37.254 0 24C0 10.746 10.746 0 24 0C37.254 0 48 10.746 48 24C48 37.254 37.254 48 24 48ZM18.648 33.424C18.8802 33.6562 19.1558 33.8404 19.4591 33.9661C19.7625 34.0918 20.0876 34.1565 20.416 34.1565C20.7444 34.1565 21.0695 34.0918 21.3729 33.9661C21.6762 33.8404 21.9518 33.6562 22.184 33.424L37.34 18.268C37.5722 18.0358 37.7564 17.7602 37.882 17.4568C38.0077 17.1535 38.0723 16.8283 38.0723 16.5C38.0723 16.1717 38.0077 15.8465 37.882 15.5432C37.7564 15.2398 37.5722 14.9642 37.34 14.732C37.1078 14.4998 36.8322 14.3157 36.5288 14.19C36.2255 14.0643 35.9003 13.9997 35.572 13.9997C35.2437 13.9997 34.9185 14.0643 34.6152 14.19C34.3118 14.3157 34.0362 14.4998 33.804 14.732L20.308 28.012L14.268 21.972C13.7991 21.5031 13.1631 21.2397 12.5 21.2397C11.8369 21.2397 11.2009 21.5031 10.732 21.972C10.2631 22.4409 9.99967 23.0769 9.99967 23.74C9.99967 24.0683 10.0643 24.3935 10.19 24.6968C10.3157 25.0002 10.4998 25.2758 10.732 25.508L18.648 33.424Z" fill="#3DBE00"/>
</svg>
