<svg width="90" height="90" viewBox="0 0 90 90" fill="none" xmlns="http://www.w3.org/2000/svg">
<circle cx="45" cy="45" r="45" fill="#3DBE00"/>
<path d="M56.472 60.8316C56.1992 60.8316 55.9217 60.7886 55.6585 60.6976L42.619 56.391C41.8246 56.1278 41.394 55.2713 41.6572 54.4769C41.9203 53.6826 42.7769 53.2519 43.5712 53.5103L56.1418 57.6638L61.0849 31.2737L27.3304 48.1366L38.2358 51.7446C39.0301 52.0078 39.4608 52.8643 39.1976 53.6587C38.9344 54.453 38.0826 54.8885 37.2835 54.6205L25.3828 50.6823C24.3827 50.3521 23.6841 49.4573 23.6075 48.4046C23.531 47.3518 24.0908 46.3661 25.0383 45.8924L60.5059 28.1729C61.3959 27.7279 62.4391 27.8236 63.2334 28.4218C64.0278 29.0199 64.4058 29.9961 64.224 30.9722L59.0273 58.7118C58.8885 59.4487 58.4387 60.0899 57.7927 60.4727C57.3908 60.7072 56.9314 60.8316 56.472 60.8316Z" fill="white"/>
<path d="M43.0931 66.5546C42.2557 66.5546 41.5762 65.8751 41.5762 65.0377V54.9506C41.5762 54.6156 41.6862 54.2902 41.892 54.027L61.2527 28.8428C61.7647 28.1776 62.717 28.0532 63.3773 28.5652C64.0425 29.0772 64.1669 30.0247 63.6549 30.6898L44.61 55.4674V65.0377C44.61 65.8751 43.9305 66.5546 43.0931 66.5546Z" fill="white"/>
</svg>
