<svg width="119" height="42" viewBox="0 0 119 42" fill="none" xmlns="http://www.w3.org/2000/svg">
<path d="M0 0H109C114.523 0 119 4.47715 119 10V42H10C4.47715 42 0 37.5228 0 32V0Z" fill="url(#paint0_linear_741_1012)"/>
<path d="M31.86 27.66V22.4H37.52V20.08H31.86V15.68H38.56V13.36H21.62V15.68H29.34V27.66H25.86V18.78H23.38V27.66H20.92V30H39.1V27.66H31.86ZM54.1 23.48H58.06V21.28H54.1V17.96H51.7V21.28H47.64V23.48H51.7V28.04H46.86V30.24H58.84V28.04H54.1V23.48ZM49.16 14.82C49.44 14.1 49.7 13.38 49.92 12.64L47.42 12.04C47.18 12.96 46.88 13.88 46.54 14.82H41.14V17.1H45.48C44.28 19.4 42.6 21.5 40.5 22.86C40.88 23.44 41.42 24.52 41.68 25.16C42.32 24.72 42.88 24.28 43.44 23.76V30.72H45.86V21.04C46.78 19.82 47.54 18.48 48.2 17.1H58.9V14.82H49.16ZM70.64 27.36V20.44H77.72V18.04H70.64V12.3H68.08V27.36H60.94V29.76H79.02V27.36H70.64ZM86.2 15.42C85.56 14.54 84.2 13.22 83.2 12.28L81.58 13.68C82.58 14.68 83.9 16.1 84.48 17L86.2 15.42ZM85.38 18.18H80.74V20.32H83.1V26.24C83.1 27.42 82.38 28.4 81.92 28.84C82.3 29.14 83.04 29.9 83.32 30.34C83.66 29.86 84.26 29.3 87.74 26.24C87.46 25.82 87.04 24.92 86.84 24.3L85.38 25.58V18.18ZM89.94 17.84H92.06V19.14H89.94V17.84ZM89.94 14.74H92.06V16.02H89.94V14.74ZM96.04 16.02H94.2V14.74H96.04V16.02ZM96.04 19.14H94.2V17.84H96.04V19.14ZM99.2 24.3V22.16H94.3V21H98.28V12.86H87.8V21H91.96V22.16H86.84V24.3H90.88C89.72 25.94 87.98 27.44 86.24 28.28C86.74 28.72 87.42 29.54 87.78 30.08C89.32 29.16 90.82 27.64 91.96 25.92V30.74H94.3V25.88C95.38 27.48 96.74 29 98.04 29.92C98.42 29.32 99.16 28.52 99.66 28.08C98.16 27.28 96.54 25.8 95.38 24.3H99.2Z" fill="white"/>
<defs>
<linearGradient id="paint0_linear_741_1012" x1="59.5" y1="0" x2="59.5" y2="42" gradientUnits="userSpaceOnUse">
<stop stop-color="#D63535"/>
<stop offset="1" stop-color="#F96868"/>
</linearGradient>
</defs>
</svg>
