<svg width="60" height="60" viewBox="0 0 60 60" fill="none" xmlns="http://www.w3.org/2000/svg">
<path d="M16.499 9.43509C16.684 9.89054 17.1227 10.1667 17.5857 10.1667C17.7326 10.1667 17.882 10.1389 18.0264 10.0802C18.6264 9.83658 18.9152 9.15268 18.6715 8.55279L17.1169 4.72499C16.8732 4.12497 16.1893 3.83627 15.5895 4.07988C14.9896 4.3235 14.7008 5.00739 14.9444 5.60729L16.499 9.43509ZM4.60263 17.0022L8.40855 18.6095C8.55749 18.6724 8.71206 18.7022 8.86418 18.7022C9.32131 18.7022 9.75571 18.4333 9.9447 17.9857C10.1967 17.3892 9.9173 16.7014 9.32083 16.4495L5.51491 14.8422C4.91843 14.5903 4.23058 14.8695 3.97875 15.466C3.7268 16.0626 4.00615 16.7503 4.60263 17.0022ZM9.22232 30.7058C9.82227 30.4622 10.111 29.7784 9.86742 29.1784C9.62374 28.5785 8.93991 28.2894 8.34001 28.5334L4.51221 30.088C3.91226 30.3316 3.62349 31.0154 3.86711 31.6154C4.05208 32.0708 4.49074 32.347 4.95375 32.347C5.10065 32.347 5.25001 32.3192 5.39451 32.2604L9.22232 30.7058ZM38.1656 18.8582C38.3125 18.8582 38.4619 18.8305 38.6064 18.7718L42.3216 17.2629C42.9216 17.0193 43.2103 16.3354 42.9667 15.7355C42.7231 15.1355 42.0392 14.8468 41.4393 15.0904L37.7241 16.5993C37.1242 16.8429 36.8354 17.5268 37.079 18.1267C37.264 18.5821 37.7026 18.8582 38.1656 18.8582ZM29.1066 10.2033C29.2556 10.2662 29.4101 10.296 29.5623 10.296C30.0194 10.296 30.4538 10.027 30.6428 9.57941L32.2502 5.77343C32.5021 5.17696 32.2228 4.48917 31.6263 4.23728C31.0296 3.98539 30.342 4.26462 30.0901 4.86115L28.4828 8.66713C28.2308 9.26361 28.5102 9.9514 29.1066 10.2033ZM53.7114 40.649C52.3088 39.2173 50.5078 38.3021 48.5537 38.0105C48.1433 30.8297 42.3048 25.0791 35.0867 24.8023C35.1158 24.4646 35.1313 24.1254 35.1313 23.7859C35.1313 17.3301 29.8791 12.078 23.4233 12.078C16.9674 12.078 11.7153 17.3301 11.7153 23.7859C11.7153 27.0826 13.061 30.1326 15.4015 32.3198C13.4102 33.3863 12.0525 35.4874 12.0525 37.8998C12.0525 37.9981 12.0547 38.0964 12.0594 38.1947C8.16763 39.2589 5.35847 42.8465 5.35847 46.975C5.35847 51.9938 9.44512 56.0769 14.4683 56.0769H47.2331C49.6268 56.0769 51.8935 55.1348 53.6156 53.4239C55.3494 51.7014 56.3044 49.4189 56.3044 46.9969C56.3044 44.6102 55.3836 42.3558 53.7114 40.649ZM14.0601 23.7859C14.0601 18.623 18.2605 14.4228 23.4233 14.4228C28.5862 14.4228 32.7865 18.6231 32.7865 23.7859C32.7865 24.162 32.7633 24.5377 32.7189 24.9095C28.0554 25.5186 23.9933 28.4352 21.9294 32.6634C20.8941 31.9596 19.6635 31.5745 18.3776 31.5745C18.3277 31.5745 18.2782 31.5752 18.2286 31.5764C15.611 29.8324 14.0601 26.951 14.0601 23.7859ZM51.963 51.7605C50.6832 53.0319 49.0034 53.7321 47.2331 53.7321H14.4684C10.7381 53.7321 7.70337 50.7009 7.70337 46.975C7.70337 43.6149 10.2086 40.7377 13.5308 40.2822C13.8595 40.2372 14.1537 40.055 14.3405 39.7807C14.5273 39.5065 14.5891 39.166 14.5107 38.8436C14.4355 38.5343 14.3973 38.2167 14.3973 37.8998C14.3973 35.9032 15.875 34.2457 17.794 33.9625C17.8532 33.9716 17.9126 33.9766 17.9719 33.9766C18.0938 33.9766 18.2148 33.9574 18.3304 33.9205C18.3462 33.9203 18.3618 33.9193 18.3776 33.9193C19.5802 33.9193 20.7059 34.4545 21.4661 35.3878C21.735 35.7179 22.162 35.8764 22.581 35.8016C23.0002 35.7269 23.3459 35.4308 23.4841 35.028C25.1041 30.3073 29.5479 27.1355 34.5419 27.1355C40.9878 27.1355 46.2319 32.3771 46.2319 38.8197C46.2319 38.8688 46.2331 38.9167 46.2343 38.9645C46.2351 38.9965 46.2364 39.0283 46.2357 39.0611C46.2226 39.7055 46.732 40.2396 47.3762 40.257C49.1438 40.3046 50.7988 41.0266 52.0364 42.29C53.2766 43.5559 53.9597 45.2275 53.9597 46.997C53.9597 48.7896 53.2506 50.4813 51.963 51.7605Z" fill="white"/>
</svg>
