<svg width="92" height="92" viewBox="0 0 92 92" fill="none" xmlns="http://www.w3.org/2000/svg">
<path d="M19.022 1.88796C38.51 0.689801 53.7331 0.715112 72.8808 1.89769C82.0945 2.46673 89.4596 9.78785 90.0613 18.9966C91.3364 38.5096 91.2972 53.7263 90.0366 72.913C89.4373 82.0357 82.2106 89.3322 73.0962 89.9806C53.6357 91.365 38.3509 91.3215 18.918 89.959C9.7091 89.3133 2.41909 81.9122 1.87438 72.692C0.738772 53.4698 0.692554 38.3101 1.8341 19.1054C2.38443 9.84707 9.76405 2.45715 19.022 1.88796Z" fill="white" stroke="white" stroke-width="2"/>
<path d="M35.5588 17H44.0882C44.7669 17 45.4177 17.2696 45.8976 17.7495C46.3775 18.2293 46.6471 18.8802 46.6471 19.5588V28.0882C46.6471 28.7669 46.3775 29.4177 45.8976 29.8976C45.4177 30.3775 44.7669 30.6471 44.0882 30.6471H35.5588C34.8802 30.6471 34.2293 30.3775 33.7495 29.8976C33.2696 29.4177 33 28.7669 33 28.0882V19.5588C33 18.8802 33.2696 18.2293 33.7495 17.7495C34.2293 17.2696 34.8802 17 35.5588 17V17ZM35.5588 19.5588V28.0882H44.0882V19.5588H35.5588ZM35.5588 32.3529H44.0882C44.7669 32.3529 45.4177 32.6225 45.8976 33.1024C46.3775 33.5823 46.6471 34.2331 46.6471 34.9118V43.4412C46.6471 44.1198 46.3775 44.7707 45.8976 45.2505C45.4177 45.7304 44.7669 46 44.0882 46H35.5588C34.8802 46 34.2293 45.7304 33.7495 45.2505C33.2696 44.7707 33 44.1198 33 43.4412V34.9118C33 34.2331 33.2696 33.5823 33.7495 33.1024C34.2293 32.6225 34.8802 32.3529 35.5588 32.3529V32.3529ZM35.5588 34.9118V43.4412H44.0882V34.9118H35.5588ZM55.1765 17C56.9862 17 58.7218 17.7189 60.0014 18.9986C61.2811 20.2782 62 22.0138 62 23.8235C62 25.6332 61.2811 27.3688 60.0014 28.6485C58.7218 29.9282 56.9862 30.6471 55.1765 30.6471C53.3668 30.6471 51.6312 29.9282 50.3515 28.6485C49.0718 27.3688 48.3529 25.6332 48.3529 23.8235C48.3529 22.0138 49.0718 20.2782 50.3515 18.9986C51.6312 17.7189 53.3668 17 55.1765 17V17ZM55.1765 19.5588C54.6164 19.5588 54.0619 19.6691 53.5444 19.8835C53.027 20.0978 52.5569 20.4119 52.1609 20.8079C51.7649 21.2039 51.4507 21.6741 51.2364 22.1915C51.0221 22.7089 50.9118 23.2635 50.9118 23.8235C50.9118 24.3836 51.0221 24.9381 51.2364 25.4556C51.4507 25.973 51.7649 26.4431 52.1609 26.8391C52.5569 27.2351 53.027 27.5493 53.5444 27.7636C54.0619 27.9779 54.6164 28.0882 55.1765 28.0882C56.3075 28.0882 57.3923 27.6389 58.1921 26.8391C58.9919 26.0393 59.4412 24.9546 59.4412 23.8235C59.4412 22.6925 58.9919 21.6077 58.1921 20.8079C57.3923 20.0081 56.3075 19.5588 55.1765 19.5588V19.5588ZM50.9118 32.3529H59.4412C60.1198 32.3529 60.7707 32.6225 61.2505 33.1024C61.7304 33.5823 62 34.2331 62 34.9118V43.4412C62 44.1198 61.7304 44.7707 61.2505 45.2505C60.7707 45.7304 60.1198 46 59.4412 46H50.9118C50.2331 46 49.5823 45.7304 49.1024 45.2505C48.6225 44.7707 48.3529 44.1198 48.3529 43.4412V34.9118C48.3529 34.2331 48.6225 33.5823 49.1024 33.1024C49.5823 32.6225 50.2331 32.3529 50.9118 32.3529V32.3529ZM50.9118 34.9118V43.4412H59.4412V34.9118H50.9118Z" fill="#1B1B1B"/>
<path d="M33.8 72.8H40.1V74.26H33.8V72.8ZM40.1 66.24V67.48H33.8V66.24H40.1ZM33.8 69.46H40.1V70.8H33.8V69.46ZM45.94 76.44V74.26H42.52V66.24H45.44V64.06H42.52V62.12H40.1V64.06H33.8V62.12H31.44V64.06H28.66V66.24H31.44V74.26H28.06V76.44H33.9C32.48 77.32 29.86 78.4 27.8 78.96C28.32 79.42 28.98 80.22 29.34 80.72C31.46 80.08 34.18 78.98 35.98 77.94L34.08 76.44H45.94ZM38 78.04C40.2 78.84 42.48 79.92 43.76 80.68L46.04 79.18C44.54 78.42 41.96 77.36 39.7 76.58L38 78.04ZM51.88 62.12C50.88 64.98 49.12 67.82 47.32 69.62C47.72 70.18 48.38 71.48 48.6 72.02C49.02 71.58 49.44 71.08 49.86 70.52V80.7H52.22V66.86C52.92 65.56 53.56 64.18 54.08 62.84L51.88 62.12ZM58.68 78.3C57.4 78.3 57.2 78.12 57.2 76.92V70.52L59.14 69.76V76H61.36V68.88L63.44 68.06C63.42 70.68 63.38 72 63.3 72.36C63.22 72.74 63.08 72.82 62.8 72.82C62.58 72.82 62.02 72.8 61.58 72.78C61.86 73.3 62.06 74.3 62.1 74.96C62.8 74.98 63.74 74.96 64.36 74.68C65.02 74.4 65.38 73.88 65.48 72.88C65.6 72 65.64 69.6 65.66 66.12L65.74 65.76L64.12 65.14L63.68 65.44L63.38 65.68L61.36 66.44V62.14H59.14V67.32L57.2 68.06V64.28H54.84V69L52.42 69.94L53.34 72.04L54.84 71.46V76.92C54.84 79.66 55.66 80.44 58.5 80.44H62.92C65.44 80.44 66.14 79.44 66.46 76.48C65.82 76.32 64.84 75.92 64.3 75.56C64.12 77.82 63.92 78.3 62.74 78.3H58.68Z" fill="#1B1B1B"/>
</svg>
