<svg width="92" height="92" viewBox="0 0 92 92" fill="none" xmlns="http://www.w3.org/2000/svg">
<path d="M19.022 1.88796C38.51 0.689801 53.7331 0.715112 72.8808 1.89769C82.0945 2.46673 89.4596 9.78785 90.0613 18.9966C91.3364 38.5096 91.2972 53.7263 90.0366 72.913C89.4373 82.0357 82.2106 89.3322 73.0962 89.9806C53.6357 91.365 38.3509 91.3215 18.918 89.959C9.7091 89.3133 2.41909 81.9122 1.87438 72.692C0.738772 53.4698 0.692554 38.3101 1.8341 19.1054C2.38443 9.84707 9.76405 2.45715 19.022 1.88796Z" fill="white" stroke="white" stroke-width="2"/>
<path d="M64.855 29.3491C64.6938 29.5739 64.4368 29.6941 64.1756 29.6941C64.0115 29.6941 63.8458 29.6467 63.7012 29.5478L46.5024 17.7958L29.3036 29.5478C28.9289 29.804 28.4122 29.715 28.1499 29.3491C27.8874 28.9832 27.9786 28.4789 28.3535 28.2229L46.0274 16.1462C46.3126 15.9513 46.6765 15.9513 46.9617 16.1462L54.866 21.558V17.7185C54.866 17.2719 55.2377 16.9098 55.6953 16.9098C56.1528 16.9098 56.5245 17.2719 56.5245 17.7185V22.6902L64.6364 28.2229C65.0113 28.4789 65.1174 28.9832 64.855 29.3491ZM58.6463 28.016C58.1888 28.016 57.8415 28.378 57.8415 28.8247V41.8244C57.8415 43.0465 57.3724 44.1864 56.4858 45.0519C55.6012 45.9153 54.4416 46.3811 53.1854 46.3811H39.4881C38.2319 46.3811 37.041 45.9153 36.1565 45.0518C35.2697 44.1864 34.7695 43.0464 34.7695 41.8243V29.0403C34.7695 28.5936 34.3734 28.2316 33.9159 28.2316C33.4583 28.2316 33.0622 28.5936 33.0622 29.0403V41.8243C33.0622 43.4785 33.7601 45.0254 34.9597 46.1963C36.1572 47.3652 37.7894 48 39.4881 48H53.1853C54.8841 48 56.4362 47.3652 57.6337 46.1963C58.8333 45.0254 59.4512 43.4784 59.4512 41.8243V28.8247C59.4512 28.3781 59.1039 28.016 58.6463 28.016ZM38.7677 34.6964C38.7655 34.6722 38.7205 34.648 38.7205 34.6237V33.9766C38.7205 33.9517 38.7659 33.9267 38.7683 33.9019C38.9979 31.4867 40.9157 30.24 42.5708 30.1036C42.8057 30.0841 43.0402 30.0742 43.2541 30.0742C44.7208 30.0742 45.6113 30.5414 46.3358 31.1543C47.0602 30.5414 47.9503 30.0742 49.4171 30.0742C49.631 30.0742 49.8643 30.0841 50.0997 30.1036C51.7541 30.24 53.6193 31.4867 53.8495 33.9017C53.8519 33.9266 53.8417 33.9516 53.8417 33.9766V34.6237C53.8417 34.648 53.8523 34.6723 53.8501 34.6964C53.6226 37.1549 51.298 39.659 46.7509 42.3516C46.6189 42.4297 46.4777 42.4689 46.3289 42.4689C46.1801 42.4689 46.0227 42.4298 45.8907 42.3516C41.3438 39.6592 38.9953 37.1551 38.7677 34.6964Z" fill="#1B1B1B"/>
<path d="M38.32 77.78V73.92H44.06V71.62H38.32V68.16H45.02V65.84H38.68L39.74 65.06C38.9 64.14 37.18 62.86 35.9 62.04L33.94 63.4C34.9 64.1 36.1 65.02 36.94 65.84H28.94V68.16H35.7V71.62H30V73.92H35.7V77.78H28.1V80.12H46V77.78H38.32ZM50 67V76.26H52.44V69.2H61.72V76.2H64.28V67H57.06C57.32 66.46 57.62 65.84 57.9 65.2H65.76V63H48.38V65.2H55.22C55.06 65.82 54.9 66.44 54.7 67H50ZM58.28 70.02H55.82V73.58C55.82 75.52 54.7 77.58 47.84 78.82C48.38 79.34 49.04 80.24 49.3 80.76C56.74 79.22 58.28 76.48 58.28 73.64V70.02ZM57.7 77.08C59.98 78.08 63.06 79.68 64.56 80.76L66 78.9C64.44 77.84 61.24 76.32 59.06 75.46L57.7 77.08Z" fill="#1B1B1B"/>
</svg>
