<svg width="92" height="92" viewBox="0 0 92 92" fill="none" xmlns="http://www.w3.org/2000/svg">
<path d="M19.022 1.88796C38.51 0.689801 53.7331 0.715112 72.8808 1.89769C82.0945 2.46673 89.4596 9.78785 90.0613 18.9966C91.3364 38.5096 91.2972 53.7263 90.0366 72.913C89.4373 82.0357 82.2106 89.3322 73.0962 89.9806C53.6357 91.365 38.3509 91.3215 18.918 89.959C9.7091 89.3133 2.41909 81.9122 1.87438 72.692C0.738772 53.4698 0.692554 38.3101 1.8341 19.1054C2.38443 9.84707 9.76405 2.45715 19.022 1.88796Z" fill="white" stroke="white" stroke-width="2"/>
<path d="M43.3848 42.9917C43.7468 42.7009 43.876 42.6012 44.1026 42.4533C44.3147 42.3149 44.5302 42.1969 44.7746 42.0977C45.1511 41.9449 45.5563 41.8542 46 41.8542C52.7999 41.8542 58.1875 37.0652 58.1875 31.3333C58.1875 25.6015 52.7999 20.8125 46 20.8125C39.2001 20.8125 33.8125 25.6014 33.8125 31.3333C33.8125 35.3411 36.4585 39.001 40.6287 40.777C41.7446 41.2522 42.3914 42.2565 42.4974 43.3519C42.507 43.4508 42.5124 43.5474 42.5139 43.6422C42.7749 43.471 43.0261 43.2799 43.3848 42.9917H43.3848ZM39.5267 43.3646C34.4831 41.2166 31 36.6365 31 31.3333C31 23.9695 37.7157 18 46 18C54.2843 18 61 23.9695 61 31.3333C61 38.6971 54.2843 44.6667 46 44.6667C45.5791 44.6667 44.9776 45.4915 43.5 46.3333C42.0525 47.158 40.5705 48 39.3333 48C36.8333 48 40.5187 43.7871 39.5267 43.3646V43.3646ZM49.875 30.0625C51.75 30.0625 51.75 27.25 49.875 27.25H42.125C40.25 27.25 40.25 30.0625 42.125 30.0625H49.875ZM47.75 35.8125C49.625 35.8125 49.625 33 47.75 33H42.125C40.25 33 40.25 35.8125 42.125 35.8125H47.75Z" fill="#1B1B1B"/>
<path d="M43.78 62.52C43.38 63.72 42.62 65.32 42.02 66.34L44.08 67.1C44.7 66.16 45.46 64.74 46.1 63.34L43.78 62.52ZM30.26 80.64C31.34 78.62 32.44 76.32 33.36 74.18L31.6 72.74C30.52 75.08 29.16 77.6 28.16 79.12L30.26 80.64ZM32.62 69.78C31.82 69.04 30.2 68.08 28.96 67.5L27.62 69.18C28.88 69.84 30.46 70.88 31.2 71.64L32.62 69.78ZM28.54 63.9C29.76 64.56 31.32 65.6 32.02 66.36L33.5 64.52C32.72 63.76 31.16 62.8 29.92 62.24L28.54 63.9ZM37.84 66.26C37.54 65.22 36.68 63.76 35.88 62.66L33.88 63.54C34.66 64.7 35.44 66.26 35.68 67.24L37.84 66.26ZM36.84 74.8V73.3H42.9V74.8H36.84ZM42.9 69.84V71.3H36.84V69.84H42.9ZM45.22 67.62H41.14V62.06H38.74V67.62H34.5V80.7H36.84V76.8H42.9V78.12C42.9 78.38 42.8 78.48 42.5 78.5C42.18 78.5 41.14 78.5 40.22 78.44C40.54 79.06 40.86 80.04 40.94 80.68C42.44 80.68 43.52 80.66 44.26 80.28C45.02 79.92 45.22 79.3 45.22 78.14V67.62ZM52.96 70.88H60.86V71.82H52.96V70.88ZM52.96 68.26H60.86V69.18H52.96V68.26ZM52.96 65.64H60.86V66.56H52.96V65.64ZM55.28 74.24C56.2 75.18 57.26 76.52 57.66 77.4L59.62 76.26C59.2 75.48 58.36 74.44 57.52 73.62H63.28V63.82H57.8C58.06 63.34 58.38 62.82 58.66 62.22L55.78 61.86C55.68 62.44 55.46 63.16 55.26 63.82H50.66V73.62H56.4L55.28 74.24ZM49.86 79.78C50.5 78.6 51.18 76.78 51.68 75.4L49.56 74.52C49.12 75.9 48.36 77.58 47.66 78.72L49.86 79.78ZM55.82 78.24C54.68 78.24 54.48 78.18 54.48 77.58V74.84H52.06V77.6C52.06 79.74 52.8 80.4 55.6 80.4H59.4C61.64 80.4 62.34 79.72 62.62 76.92C61.98 76.8 60.96 76.46 60.46 76.08C60.34 77.98 60.18 78.24 59.22 78.24H55.82ZM61.82 75.02C62.7 76.4 63.58 78.22 63.86 79.38L66.14 78.42C65.8 77.2 64.84 75.46 63.92 74.14L61.82 75.02Z" fill="#1B1B1B"/>
</svg>
