<svg width="92" height="92" viewBox="0 0 92 92" fill="none" xmlns="http://www.w3.org/2000/svg">
<path d="M19.022 1.88796C38.51 0.689801 53.7331 0.715112 72.8808 1.89769C82.0945 2.46673 89.4596 9.78785 90.0613 18.9966C91.3364 38.5096 91.2972 53.7263 90.0366 72.913C89.4373 82.0357 82.2106 89.3322 73.0962 89.9806C53.6357 91.365 38.3509 91.3215 18.918 89.959C9.7091 89.3133 2.41909 81.9122 1.87438 72.692C0.738772 53.4698 0.692554 38.3101 1.8341 19.1054C2.38443 9.84707 9.76405 2.45715 19.022 1.88796Z" fill="black" fill-opacity="0.2" stroke="white" stroke-width="2"/>
<path d="M31.0347 22.6272L31.0344 22.6276C31.5428 21.4469 32.2849 20.4844 33.2417 19.7665C34.2633 18.9998 35.5032 18.5954 36.8257 18.3719C37.0259 18.3525 37.0479 18.3513 37.2527 18.3329C39.5505 18.1275 42.0005 20.5584 42.9897 24.3013C43.5283 26.3413 43.4893 28.3191 42.8826 29.7284C42.4316 30.7756 41.6834 31.4559 40.7617 31.663C40.6428 31.7414 40.4701 31.8838 40.4053 32.0341C40.3867 32.0773 40.348 32.1672 40.442 32.3679C40.4474 32.3807 40.4527 32.3933 40.4588 32.4064C41.1359 33.6347 41.9166 34.8376 42.7793 35.9834C43.5722 37.0363 44.4303 38.0368 45.3322 38.9581C45.6511 39.1704 45.8432 39.1995 45.9087 39.1813C45.9556 39.1682 46.0148 39.0935 46.015 39.0927C46.3638 38.3329 47.0038 37.7974 47.8721 37.5286C49.507 37.0228 51.7916 37.5026 53.9836 38.8128C57.3441 40.8213 59.1837 43.9486 58.2627 46.0873C58.2598 46.0941 58.239 46.1409 58.2358 46.148C58.1899 46.2485 58.1374 46.3434 58.0802 46.4341C57.5733 47.7725 56.7804 48.8609 55.7306 49.6492C50.8693 53.297 42.1217 49.594 35.816 41.2196C30.9501 34.7569 29.0288 27.2852 31.0344 22.6271L31.0347 22.6272ZM41.1156 28.9558C41.5481 27.9516 41.5531 26.3945 41.1295 24.7901C40.3907 21.9924 38.6366 20.1336 37.555 20.2192C37.3894 20.2324 37.2834 20.2461 37.1982 20.2557C36.189 20.3704 35.1534 20.7492 34.3973 21.3161C33.7117 21.8303 33.1754 22.5315 32.8015 23.3997C31.089 27.3767 32.9595 34.2264 37.3499 40.058C42.8181 47.3202 50.706 51.0029 54.5748 48.0996C55.3502 47.5168 55.9393 46.6869 56.3104 45.6602C56.3382 45.5851 56.3744 45.5136 56.4189 45.4477C56.4445 45.4112 56.469 45.3731 56.4885 45.3321C56.9414 44.2802 55.5425 41.9897 53.0033 40.4723C51.3249 39.4689 49.5357 39.0382 48.4456 39.3754C47.9347 39.5336 47.8114 39.8034 47.7707 39.8918C47.7376 39.9687 47.3547 40.7868 46.4275 41.0442C45.7206 41.2405 44.9575 41.0542 44.1611 40.4907C44.1144 40.4578 44.0702 40.4204 44.0295 40.3792C43.0457 39.3793 42.109 38.291 41.2456 37.1447C40.304 35.8941 39.4542 34.5786 38.7194 33.2342C38.6867 33.1745 38.6604 33.1122 38.6412 33.0488C38.396 32.4438 38.3942 31.8287 38.6384 31.2615C39.0256 30.3623 39.9066 29.9184 40.006 29.8709C40.092 29.8296 40.1841 29.8011 40.279 29.7872C40.7022 29.7243 40.9674 29.3002 41.1156 28.9558ZM48.2697 28.7636C48.4519 28.3403 48.9153 28.0965 49.3793 28.2053C50.2578 28.4116 51.0051 28.949 51.484 29.7183C51.9619 30.4877 52.1145 31.3971 51.9119 32.2784C51.7909 32.8034 51.2703 33.1281 50.7477 33.0053C50.2248 32.8826 49.8985 32.3576 50.0193 31.8335C50.105 31.4591 50.0405 31.073 49.837 30.7464C49.6347 30.4198 49.317 30.1919 48.9436 30.1037C48.4206 29.9813 48.0951 29.4568 48.2151 28.9322C48.2285 28.8739 48.2467 28.8169 48.2697 28.7636ZM49.6345 25.7714C49.8168 25.3484 50.2794 25.104 50.7432 25.2134C53.9308 25.9614 55.927 29.1712 55.1933 32.3685C55.0731 32.8913 54.5517 33.2183 54.029 33.0954C53.5069 32.973 53.1806 32.448 53.3011 31.9242C53.7942 29.774 52.4515 27.6154 50.3081 27.1121C49.7853 26.9894 49.4589 26.4644 49.5796 25.9402C49.5933 25.8818 49.6113 25.825 49.6343 25.7714L49.6345 25.7714L49.6345 25.7714ZM50.1507 21.8863C50.3329 21.4633 50.7953 21.2189 51.2596 21.3278C53.9109 21.9504 56.1659 23.5715 57.6091 25.8925C59.0525 28.2134 59.5113 30.9562 58.9011 33.6161C58.7809 34.1392 58.2598 34.4655 57.7368 34.343C57.2139 34.2201 56.8885 33.6956 57.0084 33.171C57.5022 31.0189 57.1308 28.7991 55.963 26.9207C54.7943 25.0423 52.9696 23.7304 50.8239 23.2262C50.3018 23.1038 49.9752 22.5793 50.0951 22.0546C50.1088 21.9957 50.1278 21.9397 50.1507 21.8863Z" fill="white"/>
<path d="M39.4 78.12C38.3 78.12 38.16 77.92 38.16 76.68V75.56H44.04C43.86 77.6 43.62 78.12 42.68 78.12H39.4ZM31.72 73.24V71.38H35.6V73.24H31.72ZM35.6 67.26V69.2H31.72V67.26H35.6ZM42.04 71.38V73.24H38.16V71.38H42.04ZM42.04 67.26V69.2H38.16V67.26H42.04ZM44.48 64.94H38.16V62.16H35.6V64.94H29.26V76.74H31.72V75.56H35.6V76.66C35.6 79.7 36.38 80.52 39.12 80.52H42.92C45.36 80.52 46.08 79.36 46.42 76.22C45.84 76.1 45.08 75.78 44.48 75.46V64.94ZM53.3 65.36C52.62 64.52 51.18 63.26 50.12 62.38L48.6 63.82C49.64 64.8 51.06 66.14 51.66 67.02L53.3 65.36ZM52.3 75.58V68.2H47.74V70.48H50.06V76.32C50.06 77.34 49.38 78.18 48.94 78.56C49.32 78.96 50.02 79.88 50.26 80.42C50.6 79.92 51.26 79.32 54.9 76.2C54.62 75.76 54.18 74.8 53.96 74.14L52.3 75.58ZM62.9 77.88H57.64V75.22H62.9V77.88ZM66.28 70.3V68.06H61.42V64.9C62.88 64.66 64.28 64.4 65.5 64.06L63.94 62.14C61.56 62.84 57.72 63.38 54.28 63.66C54.54 64.18 54.84 65.06 54.92 65.62C56.26 65.52 57.66 65.4 59.04 65.24V68.06H54.08V70.3H59.04V73.06H55.26V80.76H57.64V80.04H62.9V80.68H65.4V73.06H61.42V70.3H66.28Z" fill="white"/>
</svg>
