<svg width="92" height="92" viewBox="0 0 92 92" fill="none" xmlns="http://www.w3.org/2000/svg">
<path d="M19.022 1.88796C38.51 0.689801 53.7331 0.715112 72.8808 1.89769C82.0945 2.46673 89.4596 9.78785 90.0613 18.9966C91.3364 38.5096 91.2972 53.7263 90.0366 72.913C89.4373 82.0357 82.2106 89.3322 73.0962 89.9806C53.6357 91.365 38.3509 91.3215 18.918 89.959C9.7091 89.3133 2.41909 81.9122 1.87438 72.692C0.738772 53.4698 0.692554 38.3101 1.8341 19.1054C2.38443 9.84707 9.76405 2.45715 19.022 1.88796Z" fill="black" fill-opacity="0.2" stroke="white" stroke-width="2"/>
<path fill-rule="evenodd" clip-rule="evenodd" d="M57.7629 19.9464C59.3382 19.9464 60.8372 20.4126 61.9866 21.2525C63.2686 22.1929 64 23.5392 64 24.9498V40.2733C64 41.6839 63.2646 43.0342 61.9866 43.9705C60.8372 44.8145 59.3382 45.2766 57.7629 45.2766H31.215V47.7482C31.215 48.6363 30.4956 49.3557 29.6075 49.3557C28.7194 49.3557 28 48.6363 28 47.7482V17.6075C28 16.7194 28.7194 16 29.6075 16C30.4956 16 31.215 16.7194 31.215 17.6075V19.9464H57.7629ZM60.0857 41.3784C60.347 41.1895 60.785 40.7917 60.785 40.2773V24.9498C60.785 24.4394 60.347 24.0415 60.0857 23.8486C59.495 23.4146 58.647 23.1654 57.7629 23.1654H31.215V42.0616H57.7629C58.647 42.0616 59.495 41.8125 60.0857 41.3784ZM49.5003 31.006H55.2271C56.1152 31.006 56.8346 31.7254 56.8346 32.6135C56.8346 33.5017 56.1152 34.221 55.2271 34.221H49.5003C48.6122 34.221 47.8928 33.5017 47.8928 32.6135C47.8928 31.7254 48.6122 31.006 49.5003 31.006ZM35.1534 32.6135C35.1534 29.8446 37.4079 27.5901 40.1768 27.5901C42.9498 27.5901 45.2003 29.8446 45.2003 32.6135C45.2003 35.3825 42.9457 37.637 40.1768 37.637C37.4079 37.637 35.1534 35.3825 35.1534 32.6135ZM38.3684 32.6135C38.3684 33.6102 39.1802 34.422 40.1768 34.422C41.1735 34.422 41.9853 33.6102 41.9853 32.6135C41.9853 31.6169 41.1735 30.8051 40.1768 30.8051C39.1802 30.8051 38.3684 31.6169 38.3684 32.6135Z" fill="white"/>
<path d="M34.9 74.04C35.92 72.14 36 69.24 36.04 66.34L34.22 66.14C34.2 68.84 34.08 71.34 33.3 72.86L34.9 74.04ZM33.82 75.66L32 76.06V71.9H33.66V69.78H32V65.46H34.1V63.3H27.84V65.46H29.84V69.78H28V71.9H29.84V76.54C28.94 76.72 28.14 76.88 27.44 77L27.86 79.2C29.66 78.8 31.94 78.28 34.06 77.74L33.82 75.66ZM38.94 62.06H36.84V70.72C36.84 74.12 36.42 77.1 33.18 79.06C33.64 79.42 34.34 80.26 34.64 80.78C38.44 78.44 38.94 74.82 38.94 70.74V62.06ZM43.88 77.9V72.48H45.8V70.36H43.88V65.44H46.04V63.28H39.5V65.44H41.62V70.36H39.74V72.48H41.62V77.9H38.58V80.1H46.36V77.9H43.88ZM51.76 72.36C53 70.8 54.2 69.02 55.2 67.26L53.3 66.06C52.94 66.76 52.54 67.5 52.12 68.18L50.36 68.32C51.52 66.74 52.6 64.78 53.38 62.96L51.22 61.94C50.46 64.28 49.08 66.76 48.62 67.4C48.18 68.04 47.86 68.46 47.42 68.58C47.7 69.2 48.06 70.28 48.16 70.72C48.48 70.58 48.98 70.44 50.82 70.22C50.12 71.26 49.5 72.04 49.18 72.38C48.54 73.14 48.08 73.58 47.56 73.7C47.82 74.28 48.16 75.34 48.28 75.76C48.8 75.4 49.64 75.08 54.76 73.6C54.68 73.12 54.62 72.2 54.66 71.6L51.76 72.36ZM61.34 65.5C60.9 67.28 60.38 69.12 59.96 70.44H63.26C62.84 72 62.26 73.38 61.5 74.58C60.42 73.14 59.58 71.48 58.98 69.74C59.12 68.4 59.24 66.98 59.32 65.5H61.34ZM64.44 68.3L64.06 68.4H62.9C63.36 66.8 63.84 64.92 64.24 63.28H55.04V65.5H57C56.8 69.88 56.3 73.72 55.02 76.62L54.62 74.96C52.12 75.92 49.52 76.94 47.84 77.46L48.4 79.82C50.24 79.06 52.58 78.08 54.78 77.12C54.34 77.96 53.86 78.7 53.28 79.36C53.84 79.66 54.96 80.44 55.36 80.8C56.82 78.94 57.78 76.52 58.36 73.62C58.88 74.62 59.46 75.54 60.1 76.42C59.12 77.46 58 78.32 56.74 78.96C57.26 79.32 58.08 80.22 58.4 80.74C59.58 80.1 60.64 79.26 61.62 78.18C62.6 79.18 63.74 80 64.98 80.66C65.34 80.06 66.04 79.18 66.54 78.74C65.24 78.16 64.08 77.34 63.04 76.34C64.34 74.36 65.34 71.86 65.92 68.88L64.44 68.3Z" fill="white"/>
</svg>
