<svg width="92" height="92" viewBox="0 0 92 92" fill="none" xmlns="http://www.w3.org/2000/svg">
<path d="M19.022 1.88796C38.51 0.689801 53.7331 0.715112 72.8808 1.89769C82.0945 2.46673 89.4596 9.78785 90.0613 18.9966C91.3364 38.5096 91.2972 53.7263 90.0366 72.913C89.4373 82.0357 82.2106 89.3322 73.0962 89.9806C53.6357 91.365 38.3509 91.3215 18.918 89.959C9.7091 89.3133 2.41909 81.9122 1.87438 72.692C0.738772 53.4698 0.692554 38.3101 1.8341 19.1054C2.38443 9.84707 9.76405 2.45715 19.022 1.88796Z" fill="white" stroke="white" stroke-width="2"/>
<path d="M58.5 18H33.5C32 18 31 19.25 31 21V45C31 46.75 32 48 33.5 48H58.5C60 48 61 46.75 61 45V21C61 19.25 60 18 58.5 18ZM50.25 24.25V30.25H41.5V24.25H50.25ZM41.5 39V31.5H50.25V39H41.5ZM50.25 40.25V46.5H41.5V40.25H50.25ZM32.25 24.25H40.25V30.25H32.25V24.25ZM32.25 31.5H40.25V39H32.25V31.5ZM32.25 43.5V40.25H40.25V46.5H34.75C33.25 46.5 32.25 45.25 32.25 43.5ZM59.75 43.5C59.75 45.25 58.75 46.5 57.25 46.5H51.5V40.25H59.75V43.5ZM59.75 39H51.5V31.5H59.75V39ZM59.75 30.25H51.5V24.25H59.75V30.25Z" fill="#1B1B1B"/>
<path d="M33.2 65.42C32.56 64.54 31.2 63.22 30.2 62.28L28.58 63.68C29.58 64.68 30.9 66.1 31.48 67L33.2 65.42ZM32.38 68.18H27.74V70.32H30.1V76.24C30.1 77.42 29.38 78.4 28.92 78.84C29.3 79.14 30.04 79.9 30.32 80.34C30.66 79.86 31.26 79.3 34.74 76.24C34.46 75.82 34.04 74.92 33.84 74.3L32.38 75.58V68.18ZM36.94 67.84H39.06V69.14H36.94V67.84ZM36.94 64.74H39.06V66.02H36.94V64.74ZM43.04 66.02H41.2V64.74H43.04V66.02ZM43.04 69.14H41.2V67.84H43.04V69.14ZM46.2 74.3V72.16H41.3V71H45.28V62.86H34.8V71H38.96V72.16H33.84V74.3H37.88C36.72 75.94 34.98 77.44 33.24 78.28C33.74 78.72 34.42 79.54 34.78 80.08C36.32 79.16 37.82 77.64 38.96 75.92V80.74H41.3V75.88C42.38 77.48 43.74 79 45.04 79.92C45.42 79.32 46.16 78.52 46.66 78.08C45.16 77.28 43.54 75.8 42.38 74.3H46.2ZM63.58 71.98C62.82 72.7 61.68 73.6 60.62 74.32C60 73.5 59.46 72.6 59.08 71.6H65.8V69.58H58.16V68.46H64.34V66.56H58.16V65.52H65.12V63.5H58.16V62.06H55.76V63.5H49.04V65.52H55.76V66.56H50.02V68.46H55.76V69.58H48.18V71.6H53.86C52.1 72.98 49.72 74.2 47.48 74.88C47.98 75.36 48.7 76.26 49.02 76.8C49.94 76.48 50.84 76.06 51.76 75.58V77.04C51.76 77.92 51.2 78.4 50.76 78.62C51.12 79.1 51.6 80.16 51.74 80.72C52.34 80.36 53.24 80.08 58.96 78.38C58.8 77.86 58.62 76.9 58.56 76.26L54.24 77.44V74.04C55.18 73.36 56.06 72.6 56.82 71.82C58.32 75.96 60.8 78.86 64.94 80.28C65.28 79.64 65.98 78.66 66.5 78.18C64.7 77.68 63.2 76.84 61.98 75.78C63.12 75.1 64.44 74.28 65.56 73.44L63.58 71.98Z" fill="#1B1B1B"/>
</svg>
