<svg width="92" height="92" viewBox="0 0 92 92" fill="none" xmlns="http://www.w3.org/2000/svg">
<path d="M19.022 1.88796C38.51 0.689801 53.7331 0.715112 72.8808 1.89769C82.0945 2.46673 89.4596 9.78785 90.0613 18.9966C91.3364 38.5096 91.2972 53.7263 90.0366 72.913C89.4373 82.0357 82.2106 89.3322 73.0962 89.9806C53.6357 91.365 38.3509 91.3215 18.918 89.959C9.7091 89.3133 2.41909 81.9122 1.87438 72.692C0.738772 53.4698 0.692554 38.3101 1.8341 19.1054C2.38443 9.84707 9.76405 2.45715 19.022 1.88796Z" fill="black" fill-opacity="0.2" stroke="white" stroke-width="2"/>
<path fill-rule="evenodd" clip-rule="evenodd" d="M54 19H56C57.0609 19 58.0783 19.4214 58.8284 20.1716C59.5786 20.9217 60 21.9391 60 23V43C60 44.0609 59.5786 45.0783 58.8284 45.8284C58.0783 46.5786 57.0609 47 56 47H36C34.9391 47 33.9217 46.5786 33.1716 45.8284C32.4214 45.0783 32 44.0609 32 43V23C32 21.9391 32.4214 20.9217 33.1716 20.1716C33.9217 19.4214 34.9391 19 36 19H38V18C38 17.7348 38.1054 17.4804 38.2929 17.2929C38.4804 17.1054 38.7348 17 39 17C39.2652 17 39.5196 17.1054 39.7071 17.2929C39.8946 17.4804 40 17.7348 40 18V19H52V18C52 17.7348 52.1054 17.4804 52.2929 17.2929C52.4804 17.1054 52.7348 17 53 17C53.2652 17 53.5196 17.1054 53.7071 17.2929C53.8946 17.4804 54 17.7348 54 18V19ZM57.4142 44.4142C57.7893 44.0391 58 43.5304 58 43V23C58 22.4696 57.7893 21.9609 57.4142 21.5858C57.0391 21.2107 56.5304 21 56 21H54V22C54 22.2652 53.8946 22.5196 53.7071 22.7071C53.5196 22.8946 53.2652 23 53 23C52.7348 23 52.4804 22.8946 52.2929 22.7071C52.1054 22.5196 52 22.2652 52 22V21H40V22C40 22.2652 39.8946 22.5196 39.7071 22.7071C39.5196 22.8946 39.2652 23 39 23C38.7348 23 38.4804 22.8946 38.2929 22.7071C38.1054 22.5196 38 22.2652 38 22V21H36C35.4696 21 34.9609 21.2107 34.5858 21.5858C34.2107 21.9609 34 22.4696 34 23V43C34 43.5304 34.2107 44.0391 34.5858 44.4142C34.9609 44.7893 35.4696 45 36 45H56C56.5304 45 57.0391 44.7893 57.4142 44.4142ZM38.902 30.53L40.132 29.298C40.3397 29.1169 40.6084 29.0214 40.8838 29.0307C41.1592 29.04 41.4208 29.1535 41.6158 29.3483C41.8108 29.543 41.9246 29.8044 41.9343 30.0798C41.944 30.3552 41.8488 30.6241 41.668 30.832L39.832 32.668C39.7127 32.7845 39.5673 32.8709 39.408 32.92C39.23 32.9951 39.0338 33.0157 38.8441 32.9794C38.6544 32.9431 38.4797 32.8515 38.342 32.716L36.284 30.658C36.1202 30.4726 36.0332 30.2317 36.0408 29.9844C36.0485 29.7371 36.1501 29.502 36.3251 29.3271C36.5 29.1521 36.7351 29.0505 36.9824 29.0428C37.2297 29.0352 37.4706 29.1222 37.656 29.286L38.902 30.53ZM45.902 30.53L47.132 29.298C47.3397 29.1169 47.6084 29.0214 47.8838 29.0307C48.1592 29.04 48.4208 29.1535 48.6158 29.3483C48.8108 29.543 48.9246 29.8044 48.9343 30.0798C48.944 30.3552 48.8488 30.6241 48.668 30.832L46.832 32.668C46.7127 32.7845 46.5673 32.8709 46.408 32.92C46.23 32.9951 46.0338 33.0157 45.8441 32.9794C45.6544 32.9431 45.4797 32.8515 45.342 32.716L43.284 30.658C43.1202 30.4726 43.0332 30.2317 43.0408 29.9844C43.0485 29.7371 43.1501 29.502 43.3251 29.3271C43.5 29.1521 43.7351 29.0505 43.9824 29.0428C44.2297 29.0352 44.4706 29.1222 44.656 29.286L45.902 30.53ZM52.902 30.53L54.132 29.298C54.3358 29.0954 54.6116 28.9817 54.899 28.9817C55.1864 28.9817 55.4622 29.0954 55.666 29.298C55.8686 29.5018 55.9823 29.7776 55.9823 30.065C55.9823 30.3524 55.8686 30.6282 55.666 30.832L53.83 32.668C53.7099 32.7845 53.5639 32.8709 53.404 32.92C53.2266 32.9953 53.0307 33.0159 52.8415 32.9792C52.6523 32.9425 52.4784 32.8502 52.342 32.714L50.284 30.656C50.1202 30.4706 50.0332 30.2297 50.0408 29.9824C50.0485 29.7351 50.1501 29.5 50.3251 29.3251C50.5 29.1501 50.7351 29.0485 50.9824 29.0408C51.2297 29.0332 51.4706 29.1202 51.656 29.284L52.902 30.53ZM38.9 36.53L40.132 35.298C40.3399 35.1172 40.6088 35.022 40.8842 35.0317C41.1596 35.0414 41.421 35.1552 41.6157 35.3502C41.8105 35.5452 41.924 35.8068 41.9333 36.0822C41.9426 36.3576 41.8471 36.6263 41.666 36.834L39.83 38.67C39.7107 38.7865 39.5653 38.8729 39.406 38.922C39.2282 38.9972 39.0321 39.0177 38.8426 38.9811C38.6531 38.9444 38.4789 38.8521 38.342 38.716L36.284 36.658C36.1202 36.4726 36.0332 36.2317 36.0408 35.9844C36.0485 35.7371 36.1501 35.502 36.3251 35.3271C36.5 35.1521 36.7351 35.0505 36.9824 35.0428C37.2297 35.0352 37.4706 35.1222 37.656 35.286L38.9 36.53ZM44 37C44 37.5304 44.2107 38.0391 44.5858 38.4142C44.9609 38.7893 45.4696 39 46 39C46.5304 39 47.0391 38.7893 47.4142 38.4142C47.7893 38.0391 48 37.5304 48 37C48 36.4696 47.7893 35.9609 47.4142 35.5858C47.0391 35.2107 46.5304 35 46 35C45.4696 35 44.9609 35.2107 44.5858 35.5858C44.2107 35.9609 44 36.4696 44 37ZM51.5858 38.4142C51.2107 38.0391 51 37.5304 51 37C51 36.4696 51.2107 35.9609 51.5858 35.5858C51.9609 35.2107 52.4696 35 53 35C53.5304 35 54.0391 35.2107 54.4142 35.5858C54.7893 35.9609 55 36.4696 55 37C55 37.5304 54.7893 38.0391 54.4142 38.4142C54.0391 38.7893 53.5304 39 53 39C52.4696 39 51.9609 38.7893 51.5858 38.4142Z" fill="white"/>
<path d="M37.16 66.08H40.24C39.66 66.64 39.02 67.14 38.34 67.66H37.16V66.08ZM45.86 69.66V67.66H41.56C42.88 66.5 44.08 65.24 45.1 63.92L43.26 62.88C42.62 63.68 41.94 64.46 41.18 65.2V64.14H37.16V62.06H34.82V64.14H30.08V66.08H34.82V67.66H28.4V69.66H35.46C33.02 71.16 30.38 72.4 27.76 73.3C28.06 73.82 28.52 74.9 28.66 75.44C30.32 74.8 31.98 74.02 33.62 73.14C33.1 74.26 32.48 75.42 31.96 76.32H40.54C40.28 77.5 40 78.14 39.66 78.38C39.4 78.56 39.1 78.58 38.64 78.58C38.06 78.58 36.44 78.54 35.08 78.44C35.52 79.04 35.86 79.96 35.88 80.64C37.28 80.7 38.6 80.7 39.34 80.64C40.32 80.6 40.94 80.46 41.54 79.94C42.24 79.34 42.7 78 43.14 75.36C43.22 75.06 43.3 74.4 43.3 74.4H35.46C35.7 73.92 35.92 73.42 36.14 72.92H43.86V71.12H37.02C37.74 70.64 38.44 70.18 39.12 69.66H45.86ZM50.22 69.7H52.06V70.76H50.22V69.7ZM55.54 70.76H53.86V69.7H55.54V70.76ZM51.44 65.04H54.38V65.92H51.44V65.04ZM62 66.26C62.02 64.92 62.04 63.52 62.04 62.08H59.9C59.9 63.54 59.9 64.92 59.88 66.26H58.12V68.4H59.84C59.7 72.8 59.22 76.3 57.38 78.76V77.58C56.26 77.66 55.12 77.74 54.02 77.8V77.08H57.14V75.42H54.02V74.74H57.54V73.08H54.02V72.36H57.46V68.12H54.02V67.44H56.56V65.04H58.02V63.28H56.56V62.08H54.38V63.28H51.44V62.08H49.36V63.28H47.76V65.04H49.36V67.44H51.92V68.12H48.4V72.36H51.92V73.08H48.28V74.74H51.92V75.42H48.68V77.08H51.92V77.92C50.38 78.02 49.02 78.1 47.92 78.14L48.1 80.16C50.54 79.94 53.86 79.62 57.06 79.28C57.6 79.62 58.34 80.34 58.64 80.86C61.08 77.98 61.74 73.72 61.94 68.4H63.66C63.52 74.94 63.34 77.4 62.94 77.92C62.76 78.2 62.58 78.26 62.26 78.26C61.88 78.26 61.12 78.26 60.3 78.2C60.66 78.82 60.92 79.74 60.96 80.38C61.88 80.4 62.78 80.4 63.36 80.3C64.02 80.18 64.46 79.96 64.88 79.32C65.52 78.42 65.68 75.52 65.86 67.3C65.86 67 65.88 66.26 65.88 66.26H62Z" fill="white"/>
</svg>
